<svg width="20" height="20" viewBox="0 0 20 20" fill="none" xmlns="http://www.w3.org/2000/svg">
<g id="AndroidLogo">
<path id="Vector" d="M16.1766 6.92734C16.1188 6.86953 16.0602 6.81328 16.0016 6.75781L17.9422 4.81718C18.0003 4.75912 18.0463 4.69018 18.0777 4.61431C18.1092 4.53844 18.1254 4.45712 18.1254 4.375C18.1254 4.29287 18.1092 4.21156 18.0777 4.13569C18.0463 4.05982 18.0003 3.99088 17.9422 3.93281C17.8841 3.87474 17.8152 3.82868 17.7393 3.79725C17.6634 3.76582 17.5821 3.74965 17.5 3.74965C17.4179 3.74965 17.3366 3.76582 17.2607 3.79725C17.1848 3.82868 17.1159 3.87474 17.0578 3.93281L15.0266 5.96406C13.556 4.92893 11.801 4.3746 10.0027 4.37726C8.20441 4.37992 6.45105 4.93943 4.9836 5.9789L2.94219 3.93281C2.82492 3.81553 2.66586 3.74965 2.5 3.74965C2.33415 3.74965 2.17509 3.81553 2.05782 3.93281C1.94054 4.05008 1.87466 4.20914 1.87466 4.375C1.87466 4.54085 1.94054 4.69991 2.05782 4.81718L4.01563 6.775C3.14101 7.60365 2.44464 8.60202 1.96911 9.70904C1.49358 10.8161 1.24889 12.0084 1.25 13.2133V15C1.25 15.3315 1.3817 15.6495 1.61612 15.8839C1.85054 16.1183 2.16848 16.25 2.5 16.25H17.5C17.8315 16.25 18.1495 16.1183 18.3839 15.8839C18.6183 15.6495 18.75 15.3315 18.75 15V13.125C18.7532 11.9729 18.5274 10.8318 18.0856 9.76778C17.6438 8.70381 16.9949 7.73828 16.1766 6.92734ZM7.1875 13.125C7.00208 13.125 6.82083 13.07 6.66666 12.967C6.51249 12.864 6.39232 12.7176 6.32137 12.5463C6.25041 12.375 6.23184 12.1865 6.26802 12.0046C6.30419 11.8227 6.39348 11.6557 6.52459 11.5246C6.6557 11.3935 6.82275 11.3042 7.00461 11.268C7.18646 11.2318 7.37496 11.2504 7.54627 11.3214C7.71758 11.3923 7.86399 11.5125 7.96701 11.6666C8.07002 11.8208 8.125 12.0021 8.125 12.1875C8.125 12.4361 8.02623 12.6746 7.85042 12.8504C7.6746 13.0262 7.43614 13.125 7.1875 13.125ZM12.8125 13.125C12.6271 13.125 12.4458 13.07 12.2917 12.967C12.1375 12.864 12.0173 12.7176 11.9464 12.5463C11.8754 12.375 11.8568 12.1865 11.893 12.0046C11.9292 11.8227 12.0185 11.6557 12.1496 11.5246C12.2807 11.3935 12.4477 11.3042 12.6296 11.268C12.8115 11.2318 13 11.2504 13.1713 11.3214C13.3426 11.3923 13.489 11.5125 13.592 11.6666C13.695 11.8208 13.75 12.0021 13.75 12.1875C13.75 12.4361 13.6512 12.6746 13.4754 12.8504C13.2996 13.0262 13.0611 13.125 12.8125 13.125Z" fill="#7ED177"/>
</g>
</svg>
