<svg viewBox="0 0 0 0" fill="none" xmlns="http://www.w3.org/2000/svg">
  <g filter="url(#filter0_d_200_445)">
    <g filter="url(#filter1_d_200_445)">
      <g filter="url(#filter2_d_200_445)">
        <circle cx="76.5" cy="60" r="16" fill="white" fill-opacity="0.996078" shape-rendering="crispEdges" />
      </g>
      <path d="M82.6766 56.9273C82.6188 56.8695 82.5602 56.8133 82.5016 56.7578L84.4422 54.8172C84.5003 54.7591 84.5463 54.6902 84.5777 54.6143C84.6092 54.5384 84.6254 54.4571 84.6254 54.375C84.6254 54.2929 84.6092 54.2115 84.5777 54.1357C84.5463 54.0598 84.5003 53.9909 84.4422 53.9328C84.3841 53.8747 84.3152 53.8287 84.2393 53.7972C84.1634 53.7658 84.0821 53.7496 84 53.7496C83.9179 53.7496 83.8366 53.7658 83.7607 53.7972C83.6848 53.8287 83.6159 53.8747 83.5578 53.9328L81.5266 55.964C80.056 54.9289 78.301 54.3746 76.5027 54.3772C74.7044 54.3799 72.9511 54.9394 71.4836 55.9789L69.4422 53.9328C69.3249 53.8155 69.1659 53.7496 69 53.7496C68.8342 53.7496 68.6751 53.8155 68.5578 53.9328C68.4405 54.0501 68.3747 54.2091 68.3747 54.375C68.3747 54.5408 68.4405 54.6999 68.5578 54.8172L70.5156 56.775C69.641 57.6036 68.9446 58.602 68.4691 59.709C67.9936 60.816 67.7489 62.0084 67.75 63.2133V65C67.75 65.3315 67.8817 65.6494 68.1161 65.8839C68.3505 66.1183 68.6685 66.25 69 66.25H84C84.3315 66.25 84.6495 66.1183 84.8839 65.8839C85.1183 65.6494 85.25 65.3315 85.25 65V63.125C85.2532 61.9729 85.0274 60.8317 84.5856 59.7678C84.1438 58.7038 83.4949 57.7383 82.6766 56.9273ZM73.6875 63.125C73.5021 63.125 73.3208 63.07 73.1667 62.967C73.0125 62.864 72.8923 62.7176 72.8214 62.5462C72.7504 62.3749 72.7318 62.1864 72.768 62.0046C72.8042 61.8227 72.8935 61.6557 73.0246 61.5246C73.1557 61.3935 73.3227 61.3042 73.5046 61.268C73.6865 61.2318 73.875 61.2504 74.0463 61.3213C74.2176 61.3923 74.364 61.5125 74.467 61.6666C74.57 61.8208 74.625 62.0021 74.625 62.1875C74.625 62.4361 74.5262 62.6746 74.3504 62.8504C74.1746 63.0262 73.9361 63.125 73.6875 63.125ZM79.3125 63.125C79.1271 63.125 78.9458 63.07 78.7917 62.967C78.6375 62.864 78.5173 62.7176 78.4464 62.5462C78.3754 62.3749 78.3568 62.1864 78.393 62.0046C78.4292 61.8227 78.5185 61.6557 78.6496 61.5246C78.7807 61.3935 78.9477 61.3042 79.1296 61.268C79.3115 61.2318 79.5 61.2504 79.6713 61.3213C79.8426 61.3923 79.989 61.5125 80.092 61.6666C80.195 61.8208 80.25 62.0021 80.25 62.1875C80.25 62.4361 80.1512 62.6746 79.9754 62.8504C79.7996 63.0262 79.5611 63.125 79.3125 63.125Z" fill="#7ED177" />
    </g>
    <path d="M115.876 65.5L115.151 63.1211H111.508L110.783 65.5H108.5L112.027 55.4648H114.618L118.159 65.5H115.876ZM114.646 61.3438L113.921 59.0195C113.875 58.8646 113.814 58.6663 113.736 58.4248C113.663 58.1787 113.588 57.9303 113.511 57.6797C113.438 57.4245 113.379 57.2035 113.333 57.0166C113.287 57.2035 113.224 57.4359 113.142 57.7139C113.064 57.9873 112.989 58.2471 112.916 58.4932C112.843 58.7393 112.791 58.9147 112.759 59.0195L112.041 61.3438H114.646ZM122.621 57.7139C123.436 57.7139 124.093 57.9372 124.589 58.3838C125.086 58.8258 125.334 59.5368 125.334 60.5166V65.5H123.249V61.0361C123.249 60.4893 123.149 60.0768 122.949 59.7988C122.753 59.5208 122.443 59.3818 122.019 59.3818C121.381 59.3818 120.946 59.5983 120.713 60.0312C120.481 60.4642 120.365 61.0885 120.365 61.9043V65.5H118.28V57.8574H119.873L120.153 58.835H120.269C120.433 58.5706 120.636 58.3564 120.877 58.1924C121.124 58.0283 121.395 57.9076 121.691 57.8301C121.992 57.7526 122.302 57.7139 122.621 57.7139ZM128.921 65.6367C128.069 65.6367 127.374 65.304 126.836 64.6387C126.303 63.9688 126.036 62.9867 126.036 61.6924C126.036 60.3844 126.307 59.3955 126.85 58.7256C127.392 58.0511 128.101 57.7139 128.976 57.7139C129.34 57.7139 129.661 57.764 129.939 57.8643C130.217 57.9645 130.457 58.099 130.657 58.2676C130.862 58.4362 131.035 58.6253 131.177 58.835H131.245C131.218 58.6891 131.184 58.4749 131.143 58.1924C131.106 57.9053 131.088 57.6113 131.088 57.3105V54.8633H133.18V65.5H131.58L131.177 64.5088H131.088C130.956 64.7184 130.789 64.9098 130.589 65.083C130.393 65.2516 130.158 65.3861 129.885 65.4863C129.611 65.5866 129.29 65.6367 128.921 65.6367ZM129.652 63.9756C130.222 63.9756 130.623 63.807 130.855 63.4697C131.092 63.1279 131.218 62.6152 131.231 61.9316V61.7061C131.231 60.9632 131.117 60.3958 130.89 60.0039C130.662 59.6074 130.238 59.4092 129.618 59.4092C129.158 59.4092 128.798 59.6074 128.538 60.0039C128.278 60.4004 128.148 60.9723 128.148 61.7197C128.148 62.4671 128.278 63.0299 128.538 63.4082C128.802 63.7865 129.174 63.9756 129.652 63.9756ZM138.646 57.7139C138.751 57.7139 138.872 57.7207 139.008 57.7344C139.15 57.7435 139.263 57.7572 139.35 57.7754L139.193 59.7305C139.124 59.7077 139.026 59.6917 138.899 59.6826C138.776 59.6689 138.669 59.6621 138.578 59.6621C138.309 59.6621 138.047 59.6963 137.791 59.7646C137.541 59.833 137.315 59.9447 137.115 60.0996C136.914 60.25 136.755 60.4505 136.636 60.7012C136.522 60.9473 136.465 61.2503 136.465 61.6104V65.5H134.38V57.8574H135.959L136.267 59.1426H136.37C136.52 58.8828 136.707 58.6458 136.93 58.4316C137.158 58.2129 137.415 58.0397 137.703 57.9121C137.994 57.7799 138.309 57.7139 138.646 57.7139ZM146.703 61.665C146.703 62.3031 146.616 62.8682 146.443 63.3604C146.275 63.8525 146.026 64.2695 145.698 64.6113C145.375 64.9486 144.983 65.2038 144.522 65.377C144.067 65.5501 143.552 65.6367 142.977 65.6367C142.44 65.6367 141.945 65.5501 141.494 65.377C141.047 65.2038 140.658 64.9486 140.325 64.6113C139.997 64.2695 139.742 63.8525 139.559 63.3604C139.382 62.8682 139.293 62.3031 139.293 61.665C139.293 60.8174 139.443 60.0996 139.744 59.5117C140.045 58.9238 140.473 58.4772 141.029 58.1719C141.585 57.8665 142.248 57.7139 143.018 57.7139C143.734 57.7139 144.367 57.8665 144.919 58.1719C145.475 58.4772 145.91 58.9238 146.225 59.5117C146.544 60.0996 146.703 60.8174 146.703 61.665ZM141.419 61.665C141.419 62.1663 141.474 62.5879 141.583 62.9297C141.692 63.2715 141.863 63.529 142.096 63.7021C142.328 63.8753 142.631 63.9619 143.005 63.9619C143.374 63.9619 143.672 63.8753 143.9 63.7021C144.133 63.529 144.301 63.2715 144.406 62.9297C144.516 62.5879 144.57 62.1663 144.57 61.665C144.57 61.1592 144.516 60.7399 144.406 60.4072C144.301 60.07 144.133 59.8171 143.9 59.6484C143.668 59.4798 143.365 59.3955 142.991 59.3955C142.44 59.3955 142.039 59.5846 141.788 59.9629C141.542 60.3411 141.419 60.9085 141.419 61.665ZM149.531 57.8574V65.5H147.446V57.8574H149.531ZM148.492 54.8633C148.801 54.8633 149.068 54.9362 149.291 55.082C149.515 55.2233 149.626 55.4899 149.626 55.8818C149.626 56.2692 149.515 56.5381 149.291 56.6885C149.068 56.8343 148.801 56.9072 148.492 56.9072C148.177 56.9072 147.908 56.8343 147.685 56.6885C147.466 56.5381 147.357 56.2692 147.357 55.8818C147.357 55.4899 147.466 55.2233 147.685 55.082C147.908 54.9362 148.177 54.8633 148.492 54.8633ZM153.165 65.6367C152.313 65.6367 151.618 65.304 151.08 64.6387C150.547 63.9688 150.28 62.9867 150.28 61.6924C150.28 60.3844 150.551 59.3955 151.094 58.7256C151.636 58.0511 152.345 57.7139 153.22 57.7139C153.584 57.7139 153.905 57.764 154.183 57.8643C154.461 57.9645 154.701 58.099 154.901 58.2676C155.106 58.4362 155.28 58.6253 155.421 58.835H155.489C155.462 58.6891 155.428 58.4749 155.387 58.1924C155.35 57.9053 155.332 57.6113 155.332 57.3105V54.8633H157.424V65.5H155.824L155.421 64.5088H155.332C155.2 64.7184 155.033 64.9098 154.833 65.083C154.637 65.2516 154.402 65.3861 154.129 65.4863C153.855 65.5866 153.534 65.6367 153.165 65.6367ZM153.896 63.9756C154.466 63.9756 154.867 63.807 155.099 63.4697C155.336 63.1279 155.462 62.6152 155.475 61.9316V61.7061C155.475 60.9632 155.362 60.3958 155.134 60.0039C154.906 59.6074 154.482 59.4092 153.862 59.4092C153.402 59.4092 153.042 59.6074 152.782 60.0039C152.522 60.4004 152.392 60.9723 152.392 61.7197C152.392 62.4671 152.522 63.0299 152.782 63.4082C153.046 63.7865 153.418 63.9756 153.896 63.9756ZM167.563 65.5L166.839 63.1211H163.195L162.471 65.5H160.187L163.715 55.4648H166.306L169.847 65.5H167.563ZM166.333 61.3438L165.608 59.0195C165.563 58.8646 165.501 58.6663 165.424 58.4248C165.351 58.1787 165.276 57.9303 165.198 57.6797C165.125 57.4245 165.066 57.2035 165.02 57.0166C164.975 57.2035 164.911 57.4359 164.829 57.7139C164.751 57.9873 164.676 58.2471 164.603 58.4932C164.53 58.7393 164.478 58.9147 164.446 59.0195L163.728 61.3438H166.333ZM174.219 57.7139C175.08 57.7139 175.775 58.0488 176.304 58.7188C176.837 59.3887 177.104 60.3708 177.104 61.665C177.104 62.5309 176.979 63.2601 176.728 63.8525C176.477 64.4404 176.131 64.8848 175.689 65.1855C175.247 65.4863 174.739 65.6367 174.164 65.6367C173.795 65.6367 173.479 65.5911 173.214 65.5C172.95 65.4043 172.724 65.2835 172.537 65.1377C172.351 64.9873 172.189 64.8278 172.052 64.6592H171.943C171.979 64.8415 172.006 65.0283 172.025 65.2197C172.043 65.4111 172.052 65.598 172.052 65.7803V68.8633H169.967V57.8574H171.662L171.956 58.8486H172.052C172.189 58.6436 172.355 58.4544 172.551 58.2812C172.747 58.1081 172.982 57.9714 173.255 57.8711C173.533 57.7663 173.854 57.7139 174.219 57.7139ZM173.549 59.3818C173.185 59.3818 172.895 59.457 172.681 59.6074C172.467 59.7578 172.31 59.9834 172.209 60.2842C172.114 60.585 172.061 60.9655 172.052 61.4258V61.6514C172.052 62.1436 172.098 62.5605 172.189 62.9023C172.284 63.2441 172.442 63.5039 172.66 63.6816C172.884 63.8594 173.189 63.9482 173.576 63.9482C173.895 63.9482 174.158 63.8594 174.363 63.6816C174.568 63.5039 174.72 63.2441 174.821 62.9023C174.925 62.556 174.978 62.1344 174.978 61.6377C174.978 60.8903 174.862 60.3275 174.629 59.9492C174.397 59.571 174.037 59.3818 173.549 59.3818ZM182.098 57.7139C182.96 57.7139 183.655 58.0488 184.183 58.7188C184.717 59.3887 184.983 60.3708 184.983 61.665C184.983 62.5309 184.858 63.2601 184.607 63.8525C184.357 64.4404 184.01 64.8848 183.568 65.1855C183.126 65.4863 182.618 65.6367 182.044 65.6367C181.675 65.6367 181.358 65.5911 181.094 65.5C180.829 65.4043 180.604 65.2835 180.417 65.1377C180.23 64.9873 180.068 64.8278 179.931 64.6592H179.822C179.859 64.8415 179.886 65.0283 179.904 65.2197C179.922 65.4111 179.931 65.598 179.931 65.7803V68.8633H177.846V57.8574H179.542L179.836 58.8486H179.931C180.068 58.6436 180.235 58.4544 180.43 58.2812C180.626 58.1081 180.861 57.9714 181.135 57.8711C181.413 57.7663 181.734 57.7139 182.098 57.7139ZM181.429 59.3818C181.064 59.3818 180.775 59.457 180.56 59.6074C180.346 59.7578 180.189 59.9834 180.089 60.2842C179.993 60.585 179.941 60.9655 179.931 61.4258V61.6514C179.931 62.1436 179.977 62.5605 180.068 62.9023C180.164 63.2441 180.321 63.5039 180.54 63.6816C180.763 63.8594 181.068 63.9482 181.456 63.9482C181.775 63.9482 182.037 63.8594 182.242 63.6816C182.447 63.5039 182.6 63.2441 182.7 62.9023C182.805 62.556 182.857 62.1344 182.857 61.6377C182.857 60.8903 182.741 60.3275 182.509 59.9492C182.276 59.571 181.916 59.3818 181.429 59.3818Z" fill="#333333" />
  </g>
  <defs>
    <filter id="filter0_d_200_445" x="-23.5" y="-22" width="294" height="176" filterUnits="userSpaceOnUse" color-interpolation-filters="sRGB">
      <feFlood flood-opacity="0" result="BackgroundImageFix" />
      <feColorMatrix in="SourceAlpha" type="matrix" values="0 0 0 0 0 0 0 0 0 0 0 0 0 0 0 0 0 0 127 0" result="hardAlpha" />
      <feOffset dy="6" />
      <feGaussianBlur stdDeviation="30" />
      <feComposite in2="hardAlpha" operator="out" />
      <feColorMatrix type="matrix" values="0 0 0 0 0.2 0 0 0 0 0.2 0 0 0 0 0.2 0 0 0 0.06 0" />
      <feBlend mode="normal" in2="BackgroundImageFix" result="effect1_dropShadow_200_445" />
      <feBlend mode="normal" in="SourceGraphic" in2="effect1_dropShadow_200_445" result="shape" />
    </filter>
    <filter id="filter1_d_200_445" x="0.5" y="-10" width="152" height="152" filterUnits="userSpaceOnUse" color-interpolation-filters="sRGB">
      <feFlood flood-opacity="0" result="BackgroundImageFix" />
      <feColorMatrix in="SourceAlpha" type="matrix" values="0 0 0 0 0 0 0 0 0 0 0 0 0 0 0 0 0 0 127 0" result="hardAlpha" />
      <feOffset dy="6" />
      <feGaussianBlur stdDeviation="30" />
      <feComposite in2="hardAlpha" operator="out" />
      <feColorMatrix type="matrix" values="0 0 0 0 0.2 0 0 0 0 0.2 0 0 0 0 0.2 0 0 0 0.06 0" />
      <feBlend mode="normal" in2="BackgroundImageFix" result="effect1_dropShadow_200_445" />
      <feBlend mode="normal" in="SourceGraphic" in2="effect1_dropShadow_200_445" result="shape" />
    </filter>
    <filter id="filter2_d_200_445" x="0.5" y="-10" width="152" height="152" filterUnits="userSpaceOnUse" color-interpolation-filters="sRGB">
      <feFlood flood-opacity="0" result="BackgroundImageFix" />
      <feColorMatrix in="SourceAlpha" type="matrix" values="0 0 0 0 0 0 0 0 0 0 0 0 0 0 0 0 0 0 127 0" result="hardAlpha" />
      <feOffset dy="6" />
      <feGaussianBlur stdDeviation="30" />
      <feComposite in2="hardAlpha" operator="out" />
      <feColorMatrix type="matrix" values="0 0 0 0 0.2 0 0 0 0 0.2 0 0 0 0 0.2 0 0 0 0.06 0" />
      <feBlend mode="normal" in2="BackgroundImageFix" result="effect1_dropShadow_200_445" />
      <feBlend mode="normal" in="SourceGraphic" in2="effect1_dropShadow_200_445" result="shape" />
    </filter>
  </defs>
</svg>