<svg width="20" height="20" viewBox="0 0 20 20" fill="none" xmlns="http://www.w3.org/2000/svg">
<g id="Lightning">
<path id="Vector" d="M16.707 9.80157L7.95698 19.1766C7.86426 19.2755 7.74186 19.3416 7.60827 19.3649C7.47467 19.3882 7.33712 19.3674 7.21638 19.3057C7.09564 19.244 6.99825 19.1446 6.93892 19.0227C6.87958 18.9007 6.86152 18.7628 6.88745 18.6297L8.03276 12.9008L3.53042 11.2102C3.43373 11.174 3.3475 11.1144 3.27944 11.0368C3.21138 10.9592 3.16361 10.8659 3.1404 10.7653C3.11718 10.6647 3.11925 10.5599 3.14641 10.4603C3.17357 10.3607 3.22498 10.2694 3.29605 10.1945L12.046 0.819538C12.1388 0.720581 12.2612 0.654468 12.3948 0.631176C12.5284 0.607884 12.6659 0.628675 12.7867 0.690414C12.9074 0.752152 13.0048 0.851488 13.0641 0.97343C13.1234 1.09537 13.1415 1.2333 13.1156 1.36641L11.9671 7.10157L16.4695 8.78985C16.5655 8.82626 16.651 8.88576 16.7185 8.96307C16.7861 9.04039 16.8335 9.13315 16.8567 9.23316C16.8798 9.33317 16.878 9.43734 16.8514 9.53648C16.8247 9.63562 16.7741 9.72666 16.7039 9.80157H16.707Z" fill="#DD5546"/>
</g>
</svg>
