<svg width="20" height="21" viewBox="0 0 20 21" fill="none" xmlns="http://www.w3.org/2000/svg">
<g id="MapPin">
<path id="Vector" d="M10 1.57568C8.17727 1.57775 6.42979 2.30274 5.14092 3.59161C3.85206 4.88047 3.12707 6.62795 3.125 8.45068C3.125 14.3335 9.375 18.7765 9.64141 18.9624C9.74649 19.036 9.87169 19.0755 10 19.0755C10.1283 19.0755 10.2535 19.036 10.3586 18.9624C10.625 18.7765 16.875 14.3335 16.875 8.45068C16.8729 6.62795 16.1479 4.88047 14.8591 3.59161C13.5702 2.30274 11.8227 1.57775 10 1.57568ZM10 5.95068C10.4945 5.95068 10.9778 6.09731 11.3889 6.37201C11.8 6.64671 12.1205 7.03716 12.3097 7.49397C12.4989 7.95079 12.5484 8.45346 12.452 8.93841C12.3555 9.42336 12.1174 9.86882 11.7678 10.2185C11.4181 10.5681 10.9727 10.8062 10.4877 10.9026C10.0028 10.9991 9.50011 10.9496 9.04329 10.7604C8.58648 10.5712 8.19603 10.2507 7.92133 9.83961C7.64662 9.42849 7.5 8.94514 7.5 8.45068C7.5 7.78764 7.76339 7.15176 8.23223 6.68292C8.70107 6.21408 9.33696 5.95068 10 5.95068Z" fill="#4E96E1" fill-opacity="0.9"/>
</g>
</svg>
