<svg width="261" height="142" viewBox="0 0 261 142" fill="none" xmlns="http://www.w3.org/2000/svg">
<g filter="url(#filter0_d_200_452)">
<g filter="url(#filter1_d_200_452)">
<g filter="url(#filter2_d_200_452)">
<circle cx="76.5" cy="60" r="16" fill="white" fill-opacity="0.996078" shape-rendering="crispEdges"/>
</g>
<path d="M74.625 53.125C74.625 52.9592 74.6908 52.8003 74.8081 52.6831C74.9253 52.5658 75.0842 52.5 75.25 52.5H77.75C77.9158 52.5 78.0747 52.5658 78.1919 52.6831C78.3092 52.8003 78.375 52.9592 78.375 53.125C78.375 53.2908 78.3092 53.4497 78.1919 53.5669C78.0747 53.6842 77.9158 53.75 77.75 53.75H75.25C75.0842 53.75 74.9253 53.6842 74.8081 53.5669C74.6908 53.4497 74.625 53.2908 74.625 53.125ZM77.75 66.25H75.25C75.0842 66.25 74.9253 66.3158 74.8081 66.4331C74.6908 66.5503 74.625 66.7092 74.625 66.875C74.625 67.0408 74.6908 67.1997 74.8081 67.3169C74.9253 67.4342 75.0842 67.5 75.25 67.5H77.75C77.9158 67.5 78.0747 67.4342 78.1919 67.3169C78.3092 67.1997 78.375 67.0408 78.375 66.875C78.375 66.7092 78.3092 66.5503 78.1919 66.4331C78.0747 66.3158 77.9158 66.25 77.75 66.25ZM82.75 52.5H80.875C80.7092 52.5 80.5503 52.5658 80.4331 52.6831C80.3158 52.8003 80.25 52.9592 80.25 53.125C80.25 53.2908 80.3158 53.4497 80.4331 53.5669C80.5503 53.6842 80.7092 53.75 80.875 53.75H82.75V55.625C82.75 55.7908 82.8158 55.9497 82.9331 56.0669C83.0503 56.1842 83.2092 56.25 83.375 56.25C83.5408 56.25 83.6997 56.1842 83.8169 56.0669C83.9342 55.9497 84 55.7908 84 55.625V53.75C84 53.4185 83.8683 53.1005 83.6339 52.8661C83.3995 52.6317 83.0815 52.5 82.75 52.5ZM83.375 58.125C83.2092 58.125 83.0503 58.1908 82.9331 58.3081C82.8158 58.4253 82.75 58.5842 82.75 58.75V61.25C82.75 61.4158 82.8158 61.5747 82.9331 61.6919C83.0503 61.8092 83.2092 61.875 83.375 61.875C83.5408 61.875 83.6997 61.8092 83.8169 61.6919C83.9342 61.5747 84 61.4158 84 61.25V58.75C84 58.5842 83.9342 58.4253 83.8169 58.3081C83.6997 58.1908 83.5408 58.125 83.375 58.125ZM83.375 63.75C83.2092 63.75 83.0503 63.8158 82.9331 63.9331C82.8158 64.0503 82.75 64.2092 82.75 64.375V66.25H80.875C80.7092 66.25 80.5503 66.3158 80.4331 66.4331C80.3158 66.5503 80.25 66.7092 80.25 66.875C80.25 67.0408 80.3158 67.1997 80.4331 67.3169C80.5503 67.4342 80.7092 67.5 80.875 67.5H82.75C83.0815 67.5 83.3995 67.3683 83.6339 67.1339C83.8683 66.8995 84 66.5815 84 66.25V64.375C84 64.2092 83.9342 64.0503 83.8169 63.9331C83.6997 63.8158 83.5408 63.75 83.375 63.75ZM69.625 61.875C69.7908 61.875 69.9497 61.8092 70.0669 61.6919C70.1842 61.5747 70.25 61.4158 70.25 61.25V58.75C70.25 58.5842 70.1842 58.4253 70.0669 58.3081C69.9497 58.1908 69.7908 58.125 69.625 58.125C69.4592 58.125 69.3003 58.1908 69.1831 58.3081C69.0658 58.4253 69 58.5842 69 58.75V61.25C69 61.4158 69.0658 61.5747 69.1831 61.6919C69.3003 61.8092 69.4592 61.875 69.625 61.875ZM72.125 66.25H70.25V64.375C70.25 64.2092 70.1842 64.0503 70.0669 63.9331C69.9497 63.8158 69.7908 63.75 69.625 63.75C69.4592 63.75 69.3003 63.8158 69.1831 63.9331C69.0658 64.0503 69 64.2092 69 64.375V66.25C69 66.5815 69.1317 66.8995 69.3661 67.1339C69.6005 67.3683 69.9185 67.5 70.25 67.5H72.125C72.2908 67.5 72.4497 67.4342 72.5669 67.3169C72.6842 67.1997 72.75 67.0408 72.75 66.875C72.75 66.7092 72.6842 66.5503 72.5669 66.4331C72.4497 66.3158 72.2908 66.25 72.125 66.25ZM69.625 56.25C69.7908 56.25 69.9497 56.1842 70.0669 56.0669C70.1842 55.9497 70.25 55.7908 70.25 55.625V53.75H72.125C72.2908 53.75 72.4497 53.6842 72.5669 53.5669C72.6842 53.4497 72.75 53.2908 72.75 53.125C72.75 52.9592 72.6842 52.8003 72.5669 52.6831C72.4497 52.5658 72.2908 52.5 72.125 52.5H70.25C69.9185 52.5 69.6005 52.6317 69.3661 52.8661C69.1317 53.1005 69 53.4185 69 53.75V55.625C69 55.7908 69.0658 55.9497 69.1831 56.0669C69.3003 56.1842 69.4592 56.25 69.625 56.25ZM80.875 63.75V56.25C80.875 56.0842 80.8092 55.9253 80.6919 55.8081C80.5747 55.6908 80.4158 55.625 80.25 55.625H72.75C72.5842 55.625 72.4253 55.6908 72.3081 55.8081C72.1908 55.9253 72.125 56.0842 72.125 56.25V63.75C72.125 63.9158 72.1908 64.0747 72.3081 64.1919C72.4253 64.3092 72.5842 64.375 72.75 64.375H80.25C80.4158 64.375 80.5747 64.3092 80.6919 64.1919C80.8092 64.0747 80.875 63.9158 80.875 63.75Z" fill="#E07E7B"/>
</g>
<path d="M112.95 55.5059C114.24 55.5059 115.181 55.7839 115.773 56.3398C116.366 56.8913 116.662 57.6523 116.662 58.623C116.662 59.0605 116.596 59.4798 116.464 59.8809C116.332 60.2773 116.115 60.6305 115.814 60.9404C115.518 61.2503 115.122 61.4964 114.625 61.6787C114.128 61.8564 113.515 61.9453 112.786 61.9453H111.877V65.5H109.758V55.5059H112.95ZM112.841 57.2422H111.877V60.209H112.574C112.971 60.209 113.315 60.1566 113.606 60.0518C113.898 59.9469 114.124 59.7829 114.283 59.5596C114.443 59.3363 114.522 59.0492 114.522 58.6982C114.522 58.2061 114.386 57.8415 114.112 57.6045C113.839 57.363 113.415 57.2422 112.841 57.2422ZM121.67 57.7139C121.775 57.7139 121.896 57.7207 122.033 57.7344C122.174 57.7435 122.288 57.7572 122.374 57.7754L122.217 59.7305C122.149 59.7077 122.051 59.6917 121.923 59.6826C121.8 59.6689 121.693 59.6621 121.602 59.6621C121.333 59.6621 121.071 59.6963 120.816 59.7646C120.565 59.833 120.34 59.9447 120.139 60.0996C119.939 60.25 119.779 60.4505 119.661 60.7012C119.547 60.9473 119.49 61.2503 119.49 61.6104V65.5H117.405V57.8574H118.984L119.291 59.1426H119.394C119.544 58.8828 119.731 58.6458 119.955 58.4316C120.182 58.2129 120.44 58.0397 120.727 57.9121C121.019 57.7799 121.333 57.7139 121.67 57.7139ZM129.727 61.665C129.727 62.3031 129.641 62.8682 129.468 63.3604C129.299 63.8525 129.051 64.2695 128.723 64.6113C128.399 64.9486 128.007 65.2038 127.547 65.377C127.091 65.5501 126.576 65.6367 126.002 65.6367C125.464 65.6367 124.97 65.5501 124.519 65.377C124.072 65.2038 123.682 64.9486 123.35 64.6113C123.021 64.2695 122.766 63.8525 122.584 63.3604C122.406 62.8682 122.317 62.3031 122.317 61.665C122.317 60.8174 122.468 60.0996 122.769 59.5117C123.069 58.9238 123.498 58.4772 124.054 58.1719C124.61 57.8665 125.273 57.7139 126.043 57.7139C126.758 57.7139 127.392 57.8665 127.943 58.1719C128.499 58.4772 128.935 58.9238 129.249 59.5117C129.568 60.0996 129.727 60.8174 129.727 61.665ZM124.443 61.665C124.443 62.1663 124.498 62.5879 124.607 62.9297C124.717 63.2715 124.888 63.529 125.12 63.7021C125.352 63.8753 125.656 63.9619 126.029 63.9619C126.398 63.9619 126.697 63.8753 126.925 63.7021C127.157 63.529 127.326 63.2715 127.431 62.9297C127.54 62.5879 127.595 62.1663 127.595 61.665C127.595 61.1592 127.54 60.7399 127.431 60.4072C127.326 60.07 127.157 59.8171 126.925 59.6484C126.692 59.4798 126.389 59.3955 126.016 59.3955C125.464 59.3955 125.063 59.5846 124.812 59.9629C124.566 60.3411 124.443 60.9085 124.443 61.665ZM132.89 65.6367C132.038 65.6367 131.343 65.304 130.805 64.6387C130.272 63.9688 130.005 62.9867 130.005 61.6924C130.005 60.3844 130.276 59.3955 130.819 58.7256C131.361 58.0511 132.07 57.7139 132.945 57.7139C133.309 57.7139 133.631 57.764 133.909 57.8643C134.187 57.9645 134.426 58.099 134.626 58.2676C134.831 58.4362 135.005 58.6253 135.146 58.835H135.214C135.187 58.6891 135.153 58.4749 135.112 58.1924C135.075 57.9053 135.057 57.6113 135.057 57.3105V54.8633H137.149V65.5H135.549L135.146 64.5088H135.057C134.925 64.7184 134.759 64.9098 134.558 65.083C134.362 65.2516 134.127 65.3861 133.854 65.4863C133.581 65.5866 133.259 65.6367 132.89 65.6367ZM133.622 63.9756C134.191 63.9756 134.592 63.807 134.825 63.4697C135.062 63.1279 135.187 62.6152 135.201 61.9316V61.7061C135.201 60.9632 135.087 60.3958 134.859 60.0039C134.631 59.6074 134.207 59.4092 133.587 59.4092C133.127 59.4092 132.767 59.6074 132.507 60.0039C132.247 60.4004 132.118 60.9723 132.118 61.7197C132.118 62.4671 132.247 63.0299 132.507 63.4082C132.772 63.7865 133.143 63.9756 133.622 63.9756ZM145.363 57.8574V65.5H143.764L143.483 64.5225H143.374C143.21 64.7822 143.005 64.9941 142.759 65.1582C142.513 65.3223 142.241 65.443 141.945 65.5205C141.649 65.598 141.341 65.6367 141.022 65.6367C140.476 65.6367 139.999 65.541 139.594 65.3496C139.188 65.1536 138.871 64.8506 138.643 64.4404C138.42 64.0303 138.309 63.4971 138.309 62.8408V57.8574H140.393V62.3213C140.393 62.8682 140.491 63.2806 140.687 63.5586C140.883 63.8366 141.196 63.9756 141.624 63.9756C142.048 63.9756 142.38 63.8799 142.622 63.6885C142.864 63.4925 143.032 63.2077 143.128 62.834C143.228 62.4557 143.278 61.9954 143.278 61.4531V57.8574H145.363ZM149.674 65.6367C148.918 65.6367 148.273 65.5 147.74 65.2266C147.206 64.9486 146.801 64.5202 146.523 63.9414C146.245 63.3626 146.106 62.6221 146.106 61.7197C146.106 60.7855 146.263 60.0244 146.578 59.4365C146.897 58.8441 147.336 58.4089 147.897 58.1309C148.462 57.8529 149.116 57.7139 149.859 57.7139C150.387 57.7139 150.843 57.7663 151.226 57.8711C151.613 57.9714 151.951 58.0921 152.238 58.2334L151.622 59.8467C151.294 59.7145 150.989 59.6074 150.706 59.5254C150.424 59.4388 150.141 59.3955 149.859 59.3955C149.494 59.3955 149.191 59.4821 148.95 59.6553C148.708 59.8239 148.528 60.0791 148.41 60.4209C148.291 60.7627 148.232 61.1911 148.232 61.7061C148.232 62.2119 148.296 62.6312 148.423 62.9639C148.551 63.2965 148.735 63.5449 148.977 63.709C149.218 63.8685 149.512 63.9482 149.859 63.9482C150.292 63.9482 150.677 63.8913 151.014 63.7773C151.351 63.6589 151.679 63.4948 151.998 63.2852V65.0693C151.679 65.2699 151.344 65.4134 150.994 65.5C150.647 65.5911 150.207 65.6367 149.674 65.6367ZM156.016 63.9756C156.243 63.9756 156.464 63.9528 156.679 63.9072C156.897 63.8617 157.114 63.8047 157.328 63.7363V65.2881C157.105 65.3883 156.827 65.4704 156.494 65.5342C156.166 65.6025 155.806 65.6367 155.414 65.6367C154.958 65.6367 154.548 65.5638 154.183 65.418C153.823 65.2676 153.539 65.0101 153.329 64.6455C153.124 64.2764 153.021 63.7637 153.021 63.1074V59.4229H152.023V58.541L153.172 57.8438L153.773 56.2305H155.106V57.8574H157.246V59.4229H155.106V63.1074C155.106 63.3991 155.188 63.6178 155.352 63.7637C155.521 63.9049 155.742 63.9756 156.016 63.9756ZM169.013 60.4072C169.013 61.5329 168.796 62.474 168.363 63.2305C167.935 63.9824 167.313 64.5498 166.497 64.9326C165.681 65.3109 164.699 65.5 163.551 65.5H160.721V55.5059H163.858C164.906 55.5059 165.816 55.6927 166.586 56.0664C167.356 56.4355 167.953 56.9847 168.377 57.7139C168.801 58.4385 169.013 59.3363 169.013 60.4072ZM166.811 60.4619C166.811 59.7236 166.702 59.1175 166.483 58.6436C166.269 58.165 165.95 57.8118 165.526 57.584C165.107 57.3561 164.587 57.2422 163.968 57.2422H162.84V63.75H163.749C164.783 63.75 165.551 63.4743 166.053 62.9229C166.558 62.3714 166.811 61.5511 166.811 60.4619ZM173.091 57.7139C173.798 57.7139 174.406 57.8506 174.916 58.124C175.427 58.3929 175.821 58.7848 176.099 59.2998C176.377 59.8148 176.516 60.4437 176.516 61.1865V62.1982H171.587C171.61 62.7861 171.785 63.2487 172.114 63.5859C172.446 63.9186 172.907 64.085 173.494 64.085C173.982 64.085 174.429 64.0348 174.834 63.9346C175.24 63.8343 175.657 63.6839 176.085 63.4834V65.0967C175.707 65.2835 175.311 65.4202 174.896 65.5068C174.486 65.5934 173.987 65.6367 173.399 65.6367C172.633 65.6367 171.954 65.4954 171.362 65.2129C170.774 64.9303 170.311 64.4997 169.974 63.9209C169.641 63.3421 169.475 62.613 169.475 61.7334C169.475 60.8402 169.625 60.0973 169.926 59.5049C170.231 58.9079 170.655 58.4613 171.198 58.165C171.74 57.8643 172.371 57.7139 173.091 57.7139ZM173.105 59.1973C172.699 59.1973 172.362 59.3271 172.093 59.5869C171.829 59.8467 171.676 60.2546 171.635 60.8105H174.561C174.556 60.5007 174.499 60.2249 174.39 59.9834C174.285 59.7419 174.126 59.5505 173.911 59.4092C173.702 59.2679 173.433 59.1973 173.105 59.1973ZM182.563 63.2305C182.563 63.75 182.44 64.1898 182.194 64.5498C181.953 64.9053 181.59 65.1764 181.107 65.3633C180.624 65.5456 180.023 65.6367 179.303 65.6367C178.769 65.6367 178.311 65.6025 177.929 65.5342C177.55 65.4658 177.167 65.3519 176.78 65.1924V63.4697C177.195 63.6566 177.639 63.8115 178.113 63.9346C178.592 64.0531 179.011 64.1123 179.371 64.1123C179.776 64.1123 180.066 64.0531 180.239 63.9346C180.417 63.8115 180.506 63.652 180.506 63.4561C180.506 63.3285 180.469 63.2145 180.396 63.1143C180.328 63.0094 180.178 62.8932 179.945 62.7656C179.713 62.6335 179.348 62.4626 178.851 62.2529C178.373 62.0524 177.979 61.8496 177.669 61.6445C177.363 61.4395 177.136 61.1979 176.985 60.9199C176.839 60.6374 176.766 60.2796 176.766 59.8467C176.766 59.1403 177.04 58.6094 177.587 58.2539C178.138 57.8939 178.874 57.7139 179.795 57.7139C180.269 57.7139 180.72 57.7617 181.148 57.8574C181.581 57.9531 182.026 58.1058 182.481 58.3154L181.852 59.8193C181.474 59.6553 181.116 59.5208 180.779 59.416C180.446 59.3112 180.107 59.2588 179.761 59.2588C179.455 59.2588 179.225 59.2998 179.07 59.3818C178.915 59.4639 178.838 59.5892 178.838 59.7578C178.838 59.8809 178.876 59.9902 178.954 60.0859C179.036 60.1816 179.191 60.2887 179.419 60.4072C179.651 60.5212 179.991 60.6693 180.437 60.8516C180.87 61.0293 181.246 61.2161 181.565 61.4121C181.884 61.6035 182.13 61.8428 182.304 62.1299C182.477 62.4124 182.563 62.7793 182.563 63.2305ZM185.295 57.8574V65.5H183.21V57.8574H185.295ZM184.256 54.8633C184.566 54.8633 184.833 54.9362 185.056 55.082C185.279 55.2233 185.391 55.4899 185.391 55.8818C185.391 56.2692 185.279 56.5381 185.056 56.6885C184.833 56.8343 184.566 56.9072 184.256 56.9072C183.942 56.9072 183.673 56.8343 183.449 56.6885C183.231 56.5381 183.121 56.2692 183.121 55.8818C183.121 55.4899 183.231 55.2233 183.449 55.082C183.673 54.9362 183.942 54.8633 184.256 54.8633ZM188.745 68.8633C187.678 68.8633 186.863 68.6764 186.298 68.3027C185.737 67.9336 185.457 67.4141 185.457 66.7441C185.457 66.2839 185.6 65.8988 185.887 65.5889C186.175 65.279 186.596 65.0579 187.152 64.9258C186.938 64.8346 186.751 64.6865 186.592 64.4814C186.432 64.2718 186.352 64.0508 186.352 63.8184C186.352 63.5267 186.437 63.2852 186.605 63.0938C186.774 62.8978 187.018 62.7064 187.337 62.5195C186.936 62.3464 186.617 62.0684 186.38 61.6855C186.147 61.3027 186.031 60.8516 186.031 60.332C186.031 59.776 186.152 59.3044 186.393 58.917C186.639 58.5251 186.995 58.2266 187.46 58.0215C187.929 57.8164 188.499 57.7139 189.169 57.7139C189.31 57.7139 189.474 57.723 189.661 57.7412C189.848 57.7594 190.019 57.7799 190.174 57.8027C190.333 57.8255 190.44 57.8438 190.495 57.8574H193.161V58.917L191.965 59.2246C192.074 59.3932 192.156 59.5732 192.211 59.7646C192.265 59.9561 192.293 60.1589 192.293 60.373C192.293 61.1934 192.006 61.8337 191.431 62.2939C190.862 62.7497 190.069 62.9775 189.052 62.9775C188.811 62.9639 188.583 62.9456 188.369 62.9229C188.264 63.0049 188.184 63.0915 188.13 63.1826C188.075 63.2738 188.048 63.3695 188.048 63.4697C188.048 63.57 188.089 63.6543 188.171 63.7227C188.257 63.7865 188.385 63.8366 188.553 63.873C188.727 63.9049 188.941 63.9209 189.196 63.9209H190.495C191.333 63.9209 191.971 64.1009 192.409 64.4609C192.851 64.821 193.072 65.3496 193.072 66.0469C193.072 66.9401 192.698 67.6328 191.951 68.125C191.208 68.6172 190.139 68.8633 188.745 68.8633ZM188.834 67.5029C189.33 67.5029 189.757 67.4551 190.112 67.3594C190.472 67.2682 190.748 67.1361 190.939 66.9629C191.131 66.7943 191.226 66.5915 191.226 66.3545C191.226 66.1631 191.169 66.0104 191.055 65.8965C190.946 65.7871 190.777 65.7096 190.55 65.6641C190.326 65.6185 190.039 65.5957 189.688 65.5957H188.608C188.353 65.5957 188.123 65.6367 187.918 65.7188C187.717 65.8008 187.558 65.9147 187.439 66.0605C187.321 66.2109 187.261 66.3841 187.261 66.5801C187.261 66.8672 187.398 67.0928 187.672 67.2568C187.95 67.4209 188.337 67.5029 188.834 67.5029ZM189.169 61.7061C189.561 61.7061 189.848 61.5853 190.03 61.3438C190.212 61.1022 190.303 60.7741 190.303 60.3594C190.303 59.8991 190.208 59.555 190.016 59.3271C189.83 59.0947 189.547 58.9785 189.169 58.9785C188.786 58.9785 188.499 59.0947 188.307 59.3271C188.116 59.555 188.02 59.8991 188.02 60.3594C188.02 60.7741 188.114 61.1022 188.301 61.3438C188.492 61.5853 188.781 61.7061 189.169 61.7061ZM197.786 57.7139C198.602 57.7139 199.258 57.9372 199.755 58.3838C200.252 58.8258 200.5 59.5368 200.5 60.5166V65.5H198.415V61.0361C198.415 60.4893 198.315 60.0768 198.114 59.7988C197.919 59.5208 197.609 59.3818 197.185 59.3818C196.547 59.3818 196.112 59.5983 195.879 60.0312C195.647 60.4642 195.531 61.0885 195.531 61.9043V65.5H193.446V57.8574H195.038L195.319 58.835H195.435C195.599 58.5706 195.802 58.3564 196.043 58.1924C196.289 58.0283 196.56 57.9076 196.857 57.8301C197.157 57.7526 197.467 57.7139 197.786 57.7139Z" fill="#333333"/>
</g>
<defs>
<filter id="filter0_d_200_452" x="-23.5" y="-22" width="310" height="176" filterUnits="userSpaceOnUse" color-interpolation-filters="sRGB">
<feFlood flood-opacity="0" result="BackgroundImageFix"/>
<feColorMatrix in="SourceAlpha" type="matrix" values="0 0 0 0 0 0 0 0 0 0 0 0 0 0 0 0 0 0 127 0" result="hardAlpha"/>
<feOffset dy="6"/>
<feGaussianBlur stdDeviation="30"/>
<feComposite in2="hardAlpha" operator="out"/>
<feColorMatrix type="matrix" values="0 0 0 0 0.2 0 0 0 0 0.2 0 0 0 0 0.2 0 0 0 0.06 0"/>
<feBlend mode="normal" in2="BackgroundImageFix" result="effect1_dropShadow_200_452"/>
<feBlend mode="normal" in="SourceGraphic" in2="effect1_dropShadow_200_452" result="shape"/>
</filter>
<filter id="filter1_d_200_452" x="0.5" y="-10" width="152" height="152" filterUnits="userSpaceOnUse" color-interpolation-filters="sRGB">
<feFlood flood-opacity="0" result="BackgroundImageFix"/>
<feColorMatrix in="SourceAlpha" type="matrix" values="0 0 0 0 0 0 0 0 0 0 0 0 0 0 0 0 0 0 127 0" result="hardAlpha"/>
<feOffset dy="6"/>
<feGaussianBlur stdDeviation="30"/>
<feComposite in2="hardAlpha" operator="out"/>
<feColorMatrix type="matrix" values="0 0 0 0 0.2 0 0 0 0 0.2 0 0 0 0 0.2 0 0 0 0.06 0"/>
<feBlend mode="normal" in2="BackgroundImageFix" result="effect1_dropShadow_200_452"/>
<feBlend mode="normal" in="SourceGraphic" in2="effect1_dropShadow_200_452" result="shape"/>
</filter>
<filter id="filter2_d_200_452" x="0.5" y="-10" width="152" height="152" filterUnits="userSpaceOnUse" color-interpolation-filters="sRGB">
<feFlood flood-opacity="0" result="BackgroundImageFix"/>
<feColorMatrix in="SourceAlpha" type="matrix" values="0 0 0 0 0 0 0 0 0 0 0 0 0 0 0 0 0 0 127 0" result="hardAlpha"/>
<feOffset dy="6"/>
<feGaussianBlur stdDeviation="30"/>
<feComposite in2="hardAlpha" operator="out"/>
<feColorMatrix type="matrix" values="0 0 0 0 0.2 0 0 0 0 0.2 0 0 0 0 0.2 0 0 0 0.06 0"/>
<feBlend mode="normal" in2="BackgroundImageFix" result="effect1_dropShadow_200_452"/>
<feBlend mode="normal" in="SourceGraphic" in2="effect1_dropShadow_200_452" result="shape"/>
</filter>
</defs>
</svg>
