<svg width="20" height="20" viewBox="0 0 20 20" fill="none" xmlns="http://www.w3.org/2000/svg">
<g id="TrendUp">
<path id="Vector" d="M18.75 4.375V9.375C18.7501 9.49868 18.7135 9.61962 18.6448 9.72249C18.5761 9.82536 18.4785 9.90554 18.3642 9.95289C18.25 10.0002 18.1242 10.0126 18.0029 9.98846C17.8816 9.9643 17.7702 9.9047 17.6828 9.81719L15.625 7.75859L11.0672 12.3172C11.0091 12.3753 10.9402 12.4214 10.8643 12.4529C10.7884 12.4843 10.7071 12.5005 10.625 12.5005C10.5428 12.5005 10.4615 12.4843 10.3856 12.4529C10.3098 12.4214 10.2408 12.3753 10.1828 12.3172L7.49998 9.63359L2.31717 14.8172C2.19989 14.9345 2.04083 15.0003 1.87498 15.0003C1.70913 15.0003 1.55007 14.9345 1.43279 14.8172C1.31552 14.6999 1.24963 14.5409 1.24963 14.375C1.24963 14.2091 1.31552 14.0501 1.43279 13.9328L7.05779 8.30781C7.11584 8.2497 7.18477 8.2036 7.26064 8.17215C7.33652 8.1407 7.41785 8.12451 7.49998 8.12451C7.58212 8.12451 7.66344 8.1407 7.73932 8.17215C7.81519 8.2036 7.88412 8.2497 7.94217 8.30781L10.625 10.9914L14.7414 6.875L12.6828 4.81719C12.5953 4.72978 12.5357 4.61837 12.5115 4.49707C12.4874 4.37576 12.4997 4.25002 12.5471 4.13576C12.5944 4.02149 12.6746 3.92384 12.7775 3.85517C12.8804 3.78651 13.0013 3.7499 13.125 3.75H18.125C18.2907 3.75 18.4497 3.81585 18.5669 3.93306C18.6841 4.05027 18.75 4.20924 18.75 4.375Z" fill="#9358B0"/>
</g>
</svg>
