<svg width="157" height="33" viewBox="0 0 157 33" fill="none" xmlns="http://www.w3.org/2000/svg">
<path d="M23.2521 8.37643C26.9637 5.75502 32.1063 7.08199 31.9983 10.6333L31.535 25.8779C31.4376 29.0815 27.0466 31.7474 23.412 30.8096L7.94258 26.8179C4.30796 25.88 3.97104 21.9942 7.31931 19.6294L23.2521 8.37643Z" fill="#62AAF5" fill-opacity="0.9"/>
<path d="M18.9281 3.37643C22.7771 0.755022 28.1102 2.08199 27.9983 5.63327L27.5178 20.8779C27.4168 24.0815 22.8632 26.7474 19.0939 25.8096L3.05157 21.8179C-0.717672 20.88 -1.06707 16.9942 2.40521 14.6294L18.9281 3.37643Z" fill="#4E96E1" fill-opacity="0.9"/>
<path d="M49.8906 12.4883C51.2578 12.4883 52.375 12.875 53.2422 13.6484C54.1094 14.4219 54.543 15.6602 54.543 17.3633V26H49.9609V18.7578C49.9609 17.875 49.832 17.2109 49.5742 16.7656C49.3242 16.3125 48.918 16.0859 48.3555 16.0859C47.4883 16.0859 46.9062 16.4414 46.6094 17.1523C46.3125 17.8555 46.1641 18.8672 46.1641 20.1875V26H41.582V12.7227H45.0391L45.6602 14.4805H45.8359C46.1172 14.0586 46.4531 13.6992 46.8438 13.4023C47.2344 13.1055 47.6836 12.8789 48.1914 12.7227C48.6992 12.5664 49.2656 12.4883 49.8906 12.4883ZM62.4606 12.4883C64.1403 12.4883 65.4528 12.9062 66.3981 13.7422C67.3434 14.5703 67.8161 15.7539 67.8161 17.293V26H64.6403L63.7614 24.2422H63.6677C63.2927 24.7109 62.9059 25.0938 62.5075 25.3906C62.1169 25.6797 61.6677 25.8906 61.1598 26.0234C60.652 26.1641 60.0309 26.2344 59.2966 26.2344C58.5309 26.2344 57.8434 26.0781 57.2341 25.7656C56.6247 25.4531 56.1442 24.9805 55.7927 24.3477C55.4411 23.7148 55.2653 22.9141 55.2653 21.9453C55.2653 20.5234 55.7575 19.4688 56.7419 18.7812C57.7262 18.0938 59.152 17.707 61.0192 17.6211L63.2341 17.5508V17.3633C63.2341 16.7695 63.0856 16.3477 62.7887 16.0977C62.4997 15.8477 62.1091 15.7227 61.6169 15.7227C61.0934 15.7227 60.5075 15.8164 59.8591 16.0039C59.2184 16.1836 58.5739 16.418 57.9255 16.707L56.6012 13.6836C57.3669 13.293 58.2341 12.9961 59.2028 12.793C60.1716 12.5898 61.2575 12.4883 62.4606 12.4883ZM63.2575 20.0703L62.2028 20.1172C61.3591 20.1484 60.7653 20.2969 60.4216 20.5625C60.0856 20.8203 59.9177 21.1914 59.9177 21.6758C59.9177 22.1289 60.0387 22.4648 60.2809 22.6836C60.5231 22.8945 60.8434 23 61.2419 23C61.7966 23 62.2692 22.8242 62.6598 22.4727C63.0583 22.1211 63.2575 21.6641 63.2575 21.1016V20.0703ZM77.5619 12.4883C78.9291 12.4883 80.0462 12.875 80.9134 13.6484C81.7806 14.4219 82.2142 15.6602 82.2142 17.3633V26H77.6322V18.7578C77.6322 17.875 77.5033 17.2109 77.2455 16.7656C76.9955 16.3125 76.5892 16.0859 76.0267 16.0859C75.1595 16.0859 74.5775 16.4414 74.2806 17.1523C73.9837 17.8555 73.8353 18.8672 73.8353 20.1875V26H69.2533V12.7227H72.7103L73.3314 14.4805H73.5072C73.7884 14.0586 74.1244 13.6992 74.515 13.4023C74.9056 13.1055 75.3548 12.8789 75.8627 12.7227C76.3705 12.5664 76.9369 12.4883 77.5619 12.4883ZM96.3311 19.332C96.3311 20.4414 96.1787 21.4258 95.8741 22.2852C95.5694 23.1445 95.128 23.8672 94.5498 24.4531C93.9717 25.0391 93.2725 25.4844 92.4522 25.7891C91.6319 26.0859 90.7061 26.2344 89.6748 26.2344C88.7139 26.2344 87.8311 26.0859 87.0264 25.7891C86.2295 25.4844 85.5342 25.0391 84.9405 24.4531C84.3467 23.8672 83.8858 23.1445 83.5577 22.2852C83.2373 21.4258 83.0772 20.4414 83.0772 19.332C83.0772 17.8633 83.3428 16.6211 83.8741 15.6055C84.4131 14.5898 85.1787 13.8164 86.1709 13.2852C87.1709 12.7539 88.3623 12.4883 89.7452 12.4883C91.0186 12.4883 92.1514 12.7539 93.1436 13.2852C94.1358 13.8164 94.9131 14.5898 95.4756 15.6055C96.0459 16.6211 96.3311 17.8633 96.3311 19.332ZM87.7295 19.332C87.7295 20.0898 87.7959 20.7305 87.9287 21.2539C88.0616 21.7695 88.2725 22.1641 88.5616 22.4375C88.8584 22.7031 89.2452 22.8359 89.7217 22.8359C90.1983 22.8359 90.5772 22.7031 90.8584 22.4375C91.1397 22.1641 91.3428 21.7695 91.4678 21.2539C91.6006 20.7305 91.667 20.0898 91.667 19.332C91.667 18.5742 91.6006 17.9414 91.4678 17.4336C91.3428 16.9258 91.1358 16.543 90.8467 16.2852C90.5655 16.0273 90.1827 15.8984 89.6983 15.8984C89.003 15.8984 88.4991 16.1875 88.1866 16.7656C87.8819 17.3438 87.7295 18.1992 87.7295 19.332ZM107.143 21.9219C107.143 22.7656 106.956 23.5117 106.581 24.1602C106.206 24.8086 105.604 25.3164 104.776 25.6836C103.956 26.0508 102.874 26.2344 101.53 26.2344C100.585 26.2344 99.737 26.1836 98.987 26.082C98.2448 25.9805 97.4909 25.7852 96.7253 25.4961V21.8281C97.5612 22.2109 98.4128 22.4883 99.28 22.6602C100.147 22.8242 100.831 22.9062 101.331 22.9062C101.846 22.9062 102.221 22.8516 102.456 22.7422C102.698 22.625 102.819 22.4531 102.819 22.2266C102.819 22.0312 102.737 21.8672 102.573 21.7344C102.417 21.5938 102.132 21.4336 101.717 21.2539C101.311 21.0742 100.737 20.832 99.9948 20.5273C99.2605 20.2227 98.6472 19.8906 98.155 19.5312C97.6706 19.1719 97.3073 18.7422 97.0652 18.2422C96.823 17.7422 96.7019 17.1289 96.7019 16.4023C96.7019 15.1055 97.2019 14.1289 98.2019 13.4727C99.2019 12.8164 100.526 12.4883 102.175 12.4883C103.05 12.4883 103.874 12.5859 104.647 12.7812C105.421 12.9688 106.221 13.2461 107.05 13.6133L105.796 16.5664C105.139 16.2695 104.475 16.0312 103.803 15.8516C103.132 15.6719 102.596 15.582 102.198 15.582C101.839 15.582 101.561 15.6289 101.366 15.7227C101.171 15.8164 101.073 15.9531 101.073 16.1328C101.073 16.2969 101.139 16.4414 101.272 16.5664C101.413 16.6914 101.675 16.8359 102.057 17C102.44 17.1641 102.999 17.3945 103.733 17.6914C104.507 18.0039 105.143 18.3398 105.643 18.6992C106.151 19.0508 106.526 19.4805 106.768 19.9883C107.018 20.4961 107.143 21.1406 107.143 21.9219ZM114.522 22.6133C114.936 22.6133 115.315 22.5703 115.659 22.4844C116.002 22.3984 116.362 22.2891 116.737 22.1562V25.4961C116.237 25.7148 115.705 25.8906 115.143 26.0234C114.588 26.1641 113.877 26.2344 113.01 26.2344C112.151 26.2344 111.393 26.1016 110.737 25.8359C110.08 25.5625 109.569 25.0938 109.202 24.4297C108.842 23.7578 108.662 22.8242 108.662 21.6289V16.1562H107.057V14.293L109.096 12.8516L110.28 10.0625H113.28V12.7227H116.537V16.1562H113.28V21.3242C113.28 21.7539 113.389 22.0781 113.608 22.2969C113.827 22.5078 114.131 22.6133 114.522 22.6133ZM123.857 12.4883C125.537 12.4883 126.85 12.9062 127.795 13.7422C128.74 14.5703 129.213 15.7539 129.213 17.293V26H126.037L125.158 24.2422H125.065C124.69 24.7109 124.303 25.0938 123.904 25.3906C123.514 25.6797 123.065 25.8906 122.557 26.0234C122.049 26.1641 121.428 26.2344 120.693 26.2344C119.928 26.2344 119.24 26.0781 118.631 25.7656C118.022 25.4531 117.541 24.9805 117.19 24.3477C116.838 23.7148 116.662 22.9141 116.662 21.9453C116.662 20.5234 117.154 19.4688 118.139 18.7812C119.123 18.0938 120.549 17.707 122.416 17.6211L124.631 17.5508V17.3633C124.631 16.7695 124.482 16.3477 124.186 16.0977C123.897 15.8477 123.506 15.7227 123.014 15.7227C122.49 15.7227 121.904 15.8164 121.256 16.0039C120.615 16.1836 119.971 16.418 119.322 16.707L117.998 13.6836C118.764 13.293 119.631 12.9961 120.6 12.793C121.568 12.5898 122.654 12.4883 123.857 12.4883ZM124.654 20.0703L123.6 20.1172C122.756 20.1484 122.162 20.2969 121.818 20.5625C121.482 20.8203 121.315 21.1914 121.315 21.6758C121.315 22.1289 121.436 22.4648 121.678 22.6836C121.92 22.8945 122.24 23 122.639 23C123.193 23 123.666 22.8242 124.057 22.4727C124.455 22.1211 124.654 21.6641 124.654 21.1016V20.0703ZM136.697 26.2344C135.353 26.2344 134.185 25.9961 133.193 25.5195C132.201 25.0352 131.431 24.293 130.885 23.293C130.345 22.2852 130.076 20.9961 130.076 19.4258C130.076 17.8164 130.377 16.5 130.978 15.4766C131.588 14.4531 132.42 13.6992 133.474 13.2148C134.529 12.7305 135.724 12.4883 137.06 12.4883C137.873 12.4883 138.642 12.5781 139.369 12.7578C140.103 12.9375 140.783 13.1836 141.408 13.4961L140.06 16.8828C139.513 16.6406 139.002 16.4492 138.525 16.3086C138.056 16.1602 137.568 16.0859 137.06 16.0859C136.599 16.0859 136.193 16.207 135.842 16.4492C135.49 16.6914 135.217 17.0586 135.021 17.5508C134.826 18.0352 134.728 18.6523 134.728 19.4023C134.728 20.168 134.826 20.7852 135.021 21.2539C135.224 21.7227 135.502 22.0625 135.853 22.2734C136.213 22.4844 136.623 22.5898 137.084 22.5898C137.748 22.5898 138.408 22.4883 139.064 22.2852C139.728 22.0742 140.357 21.7852 140.951 21.418V25.0625C140.404 25.4219 139.787 25.707 139.099 25.918C138.412 26.1289 137.611 26.2344 136.697 26.2344ZM146.513 7.76562V14.9375C146.513 15.4766 146.49 16.0781 146.443 16.7422C146.404 17.3984 146.341 17.9961 146.255 18.5352H146.349C146.529 18.2617 146.755 17.918 147.029 17.5039C147.302 17.0898 147.548 16.7461 147.767 16.4727L150.744 12.7227H155.853L151.247 18.3711L156.146 26H150.908L148.001 21.2422L146.513 22.3789V26H141.908V7.76562H146.513Z" fill="#333333"/>
</svg>
