<svg width="20" height="20" viewBox="0 0 20 20" fill="none" xmlns="http://www.w3.org/2000/svg">
<g id="Phone">
<path id="Vector" d="M1.88437 13.6782C2.02367 14.7368 2.54356 15.7085 3.34694 16.4119C4.15032 17.1152 5.18225 17.502 6.24999 17.5001C12.4531 17.5001 17.5 12.4532 17.5 6.25009C17.5019 5.18234 17.1151 4.15042 16.4118 3.34704C15.7084 2.54366 14.7367 2.02376 13.6781 1.88446C13.4104 1.85177 13.1393 1.90654 12.9053 2.04058C12.6713 2.17463 12.4869 2.38076 12.3797 2.62821L10.7297 6.3118V6.32118C10.6476 6.5106 10.6137 6.7174 10.631 6.92311C10.6483 7.12883 10.7163 7.32706 10.8289 7.50009C10.843 7.52118 10.8578 7.54071 10.8734 7.56024L12.5 9.48837C11.9148 10.6774 10.6711 11.9102 9.4664 12.497L7.56484 10.879C7.54616 10.8633 7.5266 10.8487 7.50624 10.8352C7.33336 10.7199 7.13445 10.6495 6.92752 10.6304C6.72058 10.6114 6.51216 10.6441 6.32109 10.7259L6.31093 10.7306L2.63046 12.3798C2.38258 12.4866 2.17594 12.6709 2.04145 12.9049C1.90697 13.1389 1.85186 13.4102 1.88437 13.6782Z" fill="#4E96E1" fill-opacity="0.9"/>
</g>
</svg>
